<svg width="20" height="20" viewBox="0 0 20 20" fill="none" xmlns="http://www.w3.org/2000/svg">
<path fill-rule="evenodd" clip-rule="evenodd" d="M1.875 19.75C1.875 19.75 0.25 19.75 0.25 18.125C0.25 16.5 1.875 11.625 10 11.625C18.125 11.625 19.75 16.5 19.75 18.125C19.75 19.75 18.125 19.75 18.125 19.75H1.875ZM10 10C11.2929 10 12.5329 9.48639 13.4471 8.57215C14.3614 7.65791 14.875 6.41793 14.875 5.125C14.875 3.83207 14.3614 2.59209 13.4471 1.67785C12.5329 0.763615 11.2929 0.25 10 0.25C8.70707 0.25 7.46709 0.763615 6.55285 1.67785C5.63861 2.59209 5.125 3.83207 5.125 5.125C5.125 6.41793 5.63861 7.65791 6.55285 8.57215C7.46709 9.48639 8.70707 10 10 10Z" fill="#325B6C"/>
</svg>
