<svg width="15" height="12" viewBox="0 0 15 12" fill="none" xmlns="http://www.w3.org/2000/svg">
<path d="M13.6117 0.84375H0.506018C0.227207 0.84375 0.00195312 1.06719 0.00195312 1.34375V11.3438C0.00195312 11.6203 0.227207 11.8438 0.506018 11.8438H13.6117C13.8905 11.8438 14.1158 11.6203 14.1158 11.3438V1.34375C14.1158 1.06719 13.8905 0.84375 13.6117 0.84375ZM12.9816 2.575V10.7188H1.1361V2.575L0.701343 2.23906L1.3204 1.45L1.99459 1.97031H12.1247L12.7989 1.45L13.418 2.23906L12.9816 2.575ZM12.1247 1.96875L7.05886 5.875L1.99301 1.96875L1.31882 1.44844L0.699768 2.2375L1.13452 2.57344L6.51542 6.72344C6.67017 6.84269 6.86054 6.90742 7.0565 6.90742C7.25246 6.90742 7.44284 6.84269 7.59758 6.72344L12.9816 2.575L13.4164 2.23906L12.7973 1.45L12.1247 1.96875Z" fill="black"/>
</svg>
