<svg width="18" height="22" viewBox="0 0 18 22" fill="none" xmlns="http://www.w3.org/2000/svg">
<path d="M17.6668 11.0003C17.6668 9.80541 16.6951 8.83366 15.5002 8.83366H14.4168V5.58366C14.4168 2.59691 11.9869 0.166992 9.00016 0.166992C6.01341 0.166992 3.5835 2.59691 3.5835 5.58366V8.83366H2.50016C1.30525 8.83366 0.333496 9.80541 0.333496 11.0003V19.667C0.333496 20.8619 1.30525 21.8337 2.50016 21.8337H15.5002C16.6951 21.8337 17.6668 20.8619 17.6668 19.667V11.0003ZM5.75016 5.58366C5.75016 3.79183 7.20833 2.33366 9.00016 2.33366C10.792 2.33366 12.2502 3.79183 12.2502 5.58366V8.83366H5.75016V5.58366Z" fill="#325B6C"/>
</svg>
