<?xml version="1.0" encoding="UTF-8" standalone="no"?>
<!-- Generator: Adobe Illustrator 22.1.0, SVG Export Plug-In . SVG Version: 6.00 Build 0)  -->

<svg
   xmlns:dc="http://purl.org/dc/elements/1.1/"
   xmlns:cc="http://creativecommons.org/ns#"
   xmlns:rdf="http://www.w3.org/1999/02/22-rdf-syntax-ns#"
   xmlns:svg="http://www.w3.org/2000/svg"
   xmlns="http://www.w3.org/2000/svg"
   xmlns:xlink="http://www.w3.org/1999/xlink"
   xmlns:sodipodi="http://sodipodi.sourceforge.net/DTD/sodipodi-0.dtd"
   xmlns:inkscape="http://www.inkscape.org/namespaces/inkscape"
   version="1.1"
   id="Слой_1"
   x="0px"
   y="0px"
   viewBox="0 0 431.7 431.7"
   style="enable-background:new 0 0 431.7 431.7;"
   xml:space="preserve"
   sodipodi:docname="логоГ.svg"
   inkscape:version="0.92.5 (2060ec1f9f, 2020-04-08)"><metadata
   id="metadata80"><rdf:RDF><cc:Work
       rdf:about=""><dc:format>image/svg+xml</dc:format><dc:type
         rdf:resource="http://purl.org/dc/dcmitype/StillImage" /><dc:title></dc:title></cc:Work></rdf:RDF></metadata><defs
   id="defs78" /><sodipodi:namedview
   pagecolor="#ffffff"
   bordercolor="#666666"
   borderopacity="1"
   objecttolerance="10"
   gridtolerance="10"
   guidetolerance="10"
   inkscape:pageopacity="0"
   inkscape:pageshadow="2"
   inkscape:window-width="837"
   inkscape:window-height="480"
   id="namedview76"
   showgrid="false"
   inkscape:zoom="0.54667592"
   inkscape:cx="215.85001"
   inkscape:cy="215.85001"
   inkscape:window-x="58"
   inkscape:window-y="27"
   inkscape:window-maximized="0"
   inkscape:current-layer="Слой_1" />
<style
   type="text/css"
   id="style2">
	.st0{fill:url(#SVGID_1_);stroke:#000000;stroke-miterlimit:10;}
	.st1{fill:url(#SVGID_2_);stroke:#666666;stroke-miterlimit:10;}
	.st2{fill:#F0F0F0;stroke:#F0F0F0;stroke-width:3;stroke-miterlimit:10;}
	.st3{fill:#F0F0F0;}
	.st4{fill:none;stroke:#F0F0F0;stroke-width:3;stroke-miterlimit:10;}
	.st5{fill:#F0F0F0;stroke:#F0F0F0;stroke-width:2;stroke-miterlimit:10;}
</style>
<linearGradient
   id="SVGID_1_"
   gradientUnits="userSpaceOnUse"
   x1="0.5"
   y1="216.1106"
   x2="431.7213"
   y2="216.1106">
	<stop
   offset="0"
   style="stop-color:#24C4D9"
   id="stop4" />
	<stop
   offset="1"
   style="stop-color:#504B9B"
   id="stop6" />
</linearGradient>

<image
   sodipodi:absref="/home/viktor/Загрузки/Telegram Desktop/../../../Downloads/photo_2020-11-26 20.05.38.jpeg"
   xlink:href="../../../Downloads/photo_2020-11-26 20.05.38.jpeg"
   id="image11"
   transform="matrix(2.5491 0 0 2.5491 -511.6415 -185.9566)"
   height="300"
   width="400"
   style="display:none;overflow:visible;">
</image>
<linearGradient
   id="SVGID_2_"
   gradientUnits="userSpaceOnUse"
   x1="1.7474"
   y1="215.1593"
   x2="432.9686"
   y2="215.1593">
	<stop
   offset="0"
   style="stop-color:#24C4D9"
   id="stop13" />
	<stop
   offset="1"
   style="stop-color:#504B9B"
   id="stop15" />
</linearGradient>

<g
   id="g73">
	<path
   class="st2"
   d="M244.1,358.2c-9.1,1.9-18.6,2.8-28.3,2.8c-78.1,0-141.4-63.3-141.4-141.4c0-0.5,0-1,0-1.6   c25.7,21.3,57.7,35.3,92.9,38.7c3.8,1.1,7.7,2.1,11.6,3C188.5,299.8,212,334.4,244.1,358.2z"
   id="path20" />
	<path
   class="st2"
   d="M315.2,269.2c-2-1.5-3.8-3.3-5.2-5.4C311.9,265.5,313.7,267.3,315.2,269.2z"
   id="path22" />
	<path
   class="st2"
   d="M306.2,251.2c0,3.8,0.9,7.4,2.6,10.5c-7.2-5.7-16.2-9.1-26.1-9.1c-3.3,0-6.5,0.4-9.6,1.1   c14.4-5.1,27.8-12,40.1-20.5c-4.3,4.3-7,10.2-7,16.8c0,0.2,0,0.4,0,0.6v0.1C306.2,250.8,306.2,251,306.2,251.2z"
   id="path24" />
	<path
   class="st2"
   d="M317.3,318.8c4.7-6.8,5.9-15.5,5.9-24.4c0-9-1.5-17.2-6.3-24.1c3.4,2.1,7.4,3.3,11.7,3.3c0.2,0,0.4,0,0.5,0   h0.1c0.2,0,0.4,0,0.6,0c9.8,0,18.2-6,21.8-14.5C345.1,281.7,333.3,302.4,317.3,318.8z"
   id="path26" />
	<path
   class="st2"
   d="M316.9,270.4c4.8,6.8,7.6,15.1,7.6,24.1c0,8.9-2.8,17.1-7.5,23.8c-0.2,0.2-0.4,0.4-0.6,0.6   c4.9-6.8,7.7-15.1,7.7-24c0-9.7-3.4-18.6-9-25.7C315.8,269.6,316.3,270,316.9,270.4z"
   id="path28" />
	<path
   class="st2"
   d="M175.5,82.1c0,1,0,2.1-0.1,3.1c-26.7,8.1-50.2,23.8-67.8,44.8c-19.2-7.2-32.9-25.9-32.9-47.8   c0-28.2,22.6-51,50.4-51S175.5,53.9,175.5,82.1z"
   id="path30" />
	<path
   class="st2"
   d="M354.5,84.4l1.7-0.8c1,25.3-5.4,49.5-14.6,71.2c-0.1-0.1-1.6,0.5-1.7,0.4c-5-10.1-9.7-19.4-16.7-27.9   C339.8,120.1,349.3,110.8,354.5,84.4z"
   id="path32" />
	<path
   class="st2"
   d="M341.9,154.2c-0.1,0.2-0.2,0.4-0.2,0.6c-19.4,44.2-56.2,78.8-101.6,94.7c-0.6,0.2-1.2,0.4-1.8,0.6   c9-7,14.8-18.1,14.8-30.5c0-1,0-2.1-0.1-3.1l1.2-130.7c3.3,24.9,24.3,44.1,49.7,44.1c6.6,0,13-1.3,18.8-3.7   c0.2-0.1,0.4-0.2,0.6-0.3c7.2,8.5,13.4,17.9,18.5,27.9C341.8,154,341.9,154.1,341.9,154.2z"
   id="path34" />
	<path
   class="st2"
   d="M167.3,257.7c-35.1-3.4-67.1-17.9-92.8-39.2c0.1-8.3,0.1-17.2,0.9-25.2C97.5,223.3,130.6,247,167.3,257.7z"
   id="path36" />
	<path
   class="st2"
   d="M178.9,259.7c-0.3,0-0.6,0-1,0c-3.4-0.1-6.8-0.4-10.2-0.7c-36.5-10.7-69.7-33.1-92-63.1   c-0.2-0.3-0.4-0.5-0.6-0.8c0.2-0.9,0.4-1.9,0.6-2.8c3.1-14.8,9-28.9,16.7-41.7c4.7-7.9,10.1-15.3,15.8-22.1   c5.4,2,11.3,3.1,17.4,3.1c25.3,0,45.1-18.6,48.6-43.1c0.2-1.4,1.1-4.2,1.2-5.7c0.1,0,0.4,54.3,0.4,54.3c-0.2,0.9-0.3,1.8-0.5,2.7   c-3.1,13.2-4.8,26.9-4.8,41c0,12.1,1.2,23.9,3.5,35.3c0.2,0.9,0.4,1.9,0.6,2.8v0c0,0.7,0,1.5,0,2.3   C174.7,234.6,176.1,247.4,178.9,259.7z"
   id="path38" />
	<path
   class="st2"
   d="M175.4,83.6c1.6,27.8-26.8,52.3-52.8,49.5c-6.1-0.6-10.5-2-15.9-4C124.2,108.5,148.9,91.5,175.4,83.6z"
   id="path40" />
	<path
   class="st2"
   d="M316.5,318.9c-3.5,4.8-8,8.9-13.2,11.8C307.9,327,312.3,323.1,316.5,318.9z"
   id="path42" />
	<path
   class="st2"
   d="M315.2,269.2c-2-1.5-3.8-3.3-5.2-5.4C311.9,265.5,313.7,267.3,315.2,269.2z"
   id="path44" />
	<path
   class="st2"
   d="M315.2,269.2c-2-1.5-3.8-3.3-5.2-5.4C311.9,265.5,313.7,267.3,315.2,269.2z"
   id="path46" />
	<path
   class="st2"
   d="M342.5,44.9c-32.8,1-62,12.7-88,29.2c3.4-25.2,24.9-44.6,51-44.6C320.8,29.4,333.1,34.3,342.5,44.9z"
   id="path48" />
	<path
   class="st2"
   d="M353.4,250c0,1-0.1,2-0.2,2.9c0,0,0,0,0,0c-0.3,2.1-1,4.2-1.6,6.1c0,0-0.7,2.7-0.7,2.7   c-6.6,7.8-11.5,13.9-21.3,13.9c-0.2,0-14-0.5-18.7-5.1c-5.6-5.5-4.6-17.5-4.7-19.9v-0.1c0-0.2,0-0.4,0-0.6c0-6.6,2.7-12.5,7-16.8   c0,0,0,0,0,0c1.7-1.7,3.7-3.1,5.9-4.2c3.2-1.7,6.9-2.6,10.7-2.6C342.9,226.4,353.4,236.9,353.4,250z"
   id="path50" />
	<path
   class="st2"
   d="M324.5,295c-0.3,7.5-2.5,14.3-2.5,14.3c-1.8,5-2.1,6.5-5.4,10.4c-7,8.3-15.2,13-17.6,14.2   c-5.1,2.4-10.9,3.5-16.9,3.5c-3.1,0-6-0.3-8.9-0.9c-4-0.9-7.8-2.3-11.2-4.1c-13.3-7.2-22.3-21.2-22.3-37.4c0-17,10-31.6,24.4-38.4   c0.4-0.2,0.8-0.4,1.3-0.6c2.2-1,4.6-1.8,7-2.3c2.2-0.5,4.5-0.9,6.9-1c0,0,1.4-0.1,2.9-0.1c3.6,0,15-2.2,26.6,8.5   C309.8,262.1,325.3,276.5,324.5,295z"
   id="path52" />
	<path
   class="st2"
   d="M309.9,263c0.2,0.3,0.5,0.7,0.7,1"
   id="path54" />
	<path
   class="st2"
   d="M322.7,126.9c-5.8,2.5-12.1,3.8-18.7,3.8c-26.7,0-50.9-21.6-49.9-49.8C281.1,88.9,304.9,105.1,322.7,126.9z"
   id="path56" />
	<g
   id="XMLID_1_">
		<g
   id="g60">
			<path
   class="st3"
   d="M343.3,45.7l0.3,0.2c8.1,9.3,12.3,21.6,13,35.1c1.3,23-13.3,41.1-32.1,48.9c-18.3-21.8-42.6-38-70.3-46     c-0.1-0.9-0.1-1.9-0.1-2.9c0-2.4,0.2-4.8,0.5-7.1C280.4,57,310.6,46.7,343.3,45.7z"
   id="path58" />
		</g>
		<g
   id="g64">
			<path
   class="st4"
   d="M356.5,81c1.3,23-13.3,41.1-32.1,48.9c-18.3-21.8-42.6-38-70.3-46c-0.1-0.9-0.1-1.9-0.1-2.9     c0-2.4,0.2-4.8,0.5-7.1c25.9-16.9,56-27.2,88.7-28.2l0.3,0.2C351.6,55.2,355.8,67.6,356.5,81z"
   id="path62" />
		</g>
	</g>
	<path
   class="st2"
   d="M107.6,129.9c-5.5,6.5-11.2,16-15.5,23.4c-7.6,12.6-14.4,26.2-17.5,40.8l0.1-107.3   C77.8,104.5,91.1,123.9,107.6,129.9z"
   id="path67" />
	<path
   class="st2"
   d="M302.6,331.3c-1.2,0.9-2.4,1.8-3.5,2.7c-5.2,2.3-10.9,3.5-16.9,3.5c-3.1,0-6-0.3-8.9-0.9   c-3.8-1.2-7.6-2.6-11.2-4.1c-35.2-14.4-64-40-80.7-72.2c3.2,0.7,6.4,1.2,9.7,1.7c8,1.1,16.2,1.7,24.5,1.7c16.9,0,33.2-2.4,48.6-7   c0.7-0.2,1.4-0.4,2.1-0.6c-14.9,6.4-25.3,21.2-25.3,38.4c0,23.1,18.7,41.9,41.9,41.9C289.9,336.3,296.7,334.5,302.6,331.3z"
   id="path69" />
	<path
   class="st5"
   d="M176.3,142.7l-1.2,83.9c-0.2-1-0.6-2.3-0.8-3.3c-2.5-11.8-3.8-24-3.8-36.6c0-14.6,1.8-28.9,5.2-42.5   C175.9,143.3,176,143.7,176.3,142.7z"
   id="path71" />
</g>
</svg>