<svg width="8" height="9" viewBox="0 0 8 9" fill="none" xmlns="http://www.w3.org/2000/svg">
<path d="M4.65313 4.53398L7.89313 1.44245C7.96594 1.36132 8.00399 1.25696 7.99967 1.15023C7.99535 1.0435 7.94898 0.942258 7.86983 0.866732C7.79067 0.791206 7.68457 0.746961 7.57271 0.742838C7.46085 0.738715 7.35149 0.775019 7.26646 0.844495L4.02646 3.93603L0.786464 0.840254C0.701441 0.770779 0.592074 0.734475 0.480218 0.738598C0.368362 0.74272 0.262256 0.786965 0.183103 0.862491C0.10395 0.938017 0.0575794 1.03926 0.0532588 1.14599C0.0489383 1.25272 0.0869857 1.35708 0.159797 1.43821L3.3998 4.53398L0.155353 7.62552C0.108828 7.66354 0.0710408 7.71032 0.0443638 7.76293C0.0176868 7.81555 0.00269541 7.87285 0.000331191 7.93126C-0.00203303 7.98966 0.00828072 8.0479 0.030625 8.10232C0.0529692 8.15674 0.0868618 8.20617 0.130175 8.24749C0.173488 8.28882 0.225287 8.32116 0.28232 8.34248C0.339354 8.3638 0.40039 8.37364 0.461599 8.37139C0.522807 8.36913 0.582866 8.35483 0.638006 8.32937C0.693146 8.30392 0.742176 8.26786 0.782019 8.22347L4.02646 5.13193L7.26646 8.22347C7.35149 8.29295 7.46085 8.32925 7.57271 8.32513C7.68457 8.321 7.79067 8.27676 7.86983 8.20123C7.94898 8.12571 7.99535 8.02446 7.99967 7.91773C8.00399 7.811 7.96594 7.70665 7.89313 7.62552L4.65313 4.53398Z" fill="white"/>
</svg>
