<svg width="20" height="19" viewBox="0 0 20 19" fill="none" xmlns="http://www.w3.org/2000/svg">
<path d="M18.8137 9.24391C18.9004 8.99024 18.9438 8.72811 18.9438 8.46175C18.9438 7.8635 18.7196 7.28851 18.3147 6.81921C18.4014 6.56554 18.4448 6.30341 18.4448 6.03705C18.4448 5.4388 18.2206 4.86381 17.8157 4.39451C17.9025 4.14084 17.9458 3.87871 17.9458 3.61235C17.9458 2.52155 17.2058 1.53856 16.0584 1.10943C15.8567 1.03318 15.6392 0.994314 15.4196 0.995278H4.03923V10.043H4.04646L6.11474 16.6131C6.4474 17.6722 7.55626 18.4121 8.80976 18.4121C9.5257 18.4121 10.1934 18.1627 10.6876 17.706C11.1818 17.2516 11.4349 16.6554 11.3987 16.0276L11.2541 13.4295H17.0371C17.3287 13.4295 17.6132 13.3619 17.8639 13.2329C18.8378 12.7362 19.4428 11.8356 19.4428 10.8864C19.4428 10.2882 19.2186 9.71321 18.8137 9.24391ZM0.158203 1.66963V9.3644C0.158203 9.73857 0.502915 10.0409 0.929587 10.0409H2.49646V0.993164H0.929587C0.502915 0.993164 0.158203 1.29546 0.158203 1.66963Z" fill="#A3A3A3"/>
</svg>
