<svg width="11" height="11" viewBox="0 0 11 11" fill="none" xmlns="http://www.w3.org/2000/svg">
<g clip-path="url(#clip0)">
<path d="M0.5 1.01406C0.5 0.854933 0.584965 0.70232 0.736204 0.589799C0.887443 0.477277 1.09257 0.414062 1.30645 0.414062H9.37097C9.58485 0.414062 9.78998 0.477277 9.94122 0.589799C10.0925 0.70232 10.1774 0.854933 10.1774 1.01406C10.1774 1.17319 10.0925 1.3258 9.94122 1.43833C9.78998 1.55085 9.58485 1.61406 9.37097 1.61406H1.30645C1.09257 1.61406 0.887443 1.55085 0.736204 1.43833C0.584965 1.3258 0.5 1.17319 0.5 1.01406Z" fill="#F2F2F2"/>
<path d="M2.11328 3.41445C2.11328 3.25532 2.19825 3.10271 2.34949 2.99019C2.50072 2.87767 2.70585 2.81445 2.91973 2.81445H7.75844C7.97233 2.81445 8.17745 2.87767 8.32869 2.99019C8.47993 3.10271 8.56489 3.25532 8.56489 3.41445C8.56489 3.57358 8.47993 3.7262 8.32869 3.83872C8.17745 3.95124 7.97233 4.01445 7.75844 4.01445H2.91973C2.70585 4.01445 2.50072 3.95124 2.34949 3.83872C2.19825 3.7262 2.11328 3.57358 2.11328 3.41445Z" fill="#F2F2F2"/>
<path d="M4.53301 5.21387C4.31913 5.21387 4.11401 5.27708 3.96277 5.3896C3.81153 5.50213 3.72656 5.65474 3.72656 5.81387C3.72656 5.973 3.81153 6.12561 3.96277 6.23813C4.11401 6.35065 4.31913 6.41387 4.53301 6.41387H6.14592C6.3598 6.41387 6.56493 6.35065 6.71616 6.23813C6.8674 6.12561 6.95237 5.973 6.95237 5.81387C6.95237 5.65474 6.8674 5.50213 6.71616 5.3896C6.56493 5.27708 6.3598 5.21387 6.14592 5.21387H4.53301Z" fill="#F2F2F2"/>
</g>
<defs>
<clipPath id="clip0">
<rect width="10" height="10" fill="white" transform="translate(0.5 0.0917969)"/>
</clipPath>
</defs>
</svg>
