<svg width="20" height="18" viewBox="0 0 20 18" fill="none" xmlns="http://www.w3.org/2000/svg">
<path d="M18.8056 9.16921C19.2106 8.69997 19.4348 8.12505 19.4348 7.52687C19.4348 6.57782 18.8297 5.6795 17.8558 5.17856C17.6051 5.04961 17.3197 4.98175 17.029 4.98199H11.2485L11.3932 2.38426C11.4269 1.75649 11.1738 1.16043 10.6821 0.705989C10.4407 0.481997 10.1496 0.303781 9.8266 0.182354C9.50362 0.0609269 9.15566 -0.00113085 8.80425 1.55994e-05C7.55077 1.55994e-05 6.44191 0.739808 6.10926 1.79877L4.0386 8.37235H4.03137V17.4189H15.4164C15.6381 17.4189 15.8551 17.3809 16.0552 17.3048C17.2026 16.8757 17.9426 15.8929 17.9426 14.8022C17.9426 14.5359 17.8992 14.2738 17.8125 14.0201C18.2174 13.5509 18.4416 12.976 18.4416 12.3778C18.4416 12.1115 18.3982 11.8494 18.3114 11.5957C18.7164 11.1265 18.9406 10.5516 18.9406 9.95339C18.9358 9.68706 18.8924 9.42285 18.8056 9.16921ZM0.150391 9.04873V16.7426C0.150391 17.1167 0.495099 17.4189 0.921765 17.4189H2.48862V8.37235H0.921765C0.495099 8.37235 0.150391 8.6746 0.150391 9.04873Z" fill="#A3A3A3"/>
</svg>
