<svg width="23" height="15" viewBox="0 0 23 15" fill="none" xmlns="http://www.w3.org/2000/svg">
<path d="M8.55752 7.28644C8.55752 7.94342 8.84645 8.57349 9.36075 9.03805C9.87506 9.5026 10.5726 9.76358 11.2999 9.76358C12.0273 9.76358 12.7248 9.5026 13.2391 9.03805C13.7534 8.57349 14.0424 7.94342 14.0424 7.28644C14.0424 6.62946 13.7534 5.99939 13.2391 5.53483C12.7248 5.07028 12.0273 4.80929 11.2999 4.80929C10.5726 4.80929 9.87506 5.07028 9.36075 5.53483C8.84645 5.99939 8.55752 6.62946 8.55752 7.28644ZM21.9317 6.71581C19.6105 2.29897 16.1016 0.0761719 11.3979 0.0761719C6.69169 0.0761719 3.18531 2.29897 0.864051 6.71802C0.770944 6.8961 0.722656 7.0906 0.722656 7.28754C0.722656 7.48449 0.770944 7.67898 0.864051 7.85707C3.18531 12.2739 6.69414 14.4967 11.3979 14.4967C16.1041 14.4967 19.6105 12.2739 21.9317 7.85485C22.1203 7.49655 22.1203 7.08075 21.9317 6.71581ZM11.2999 11.1791C8.91991 11.1791 6.99042 9.43625 6.99042 7.28644C6.99042 5.13663 8.91991 3.39378 11.2999 3.39378C13.68 3.39378 15.6095 5.13663 15.6095 7.28644C15.6095 9.43625 13.68 11.1791 11.2999 11.1791Z" fill="#A3A3A3"/>
</svg>
